# xmcd
#
# Track frame offsets:
#	150
#	16577
#	32202
#	50920
#	67755
#	83285
#	99125
#	113652
#	136997
#	148572
#	164147
#	176284
#	190197
#	206772
#
# Disc length: 2995 seconds
#
# Revision: 1
# Processed by: cddbd v1.5.1PL0 Copyright (c) Steve Scherf et al.
# Submitted via: dBpowerAMP V4.0
#
DISCID=b00bb10e
DTITLE=Tche menina 3 - Tche menina 3
DYEAR=1900
DGENRE=Country
TTITLE0=Num tranco de vaneira - os mateadores
TTITLE1=Ajoelha e chora - tche garotos
TTITLE2=de chao batido - os serranos
TTITLE3=lembrancas de um beijo - os orelhanos
TTITLE4=os de bota e bombacha - Os monarcas
TTITLE5=aparando os recavem - os mirins
TTITLE6=e sabado o dia - Tche garotos
TTITLE7=oh! de casa - Os tiranos
TTITLE8=Arros com charque, pao com banha - tche campeiro
TTITLE9=gritos de liberdade - grupo rodeio
TTITLE10=espantando o bagual - mano lina
TTITLE11=abrindo a cordeona - Marines siqueira
TTITLE12=tropilha e ginetes - cesar oliveira
TTITLE13=tchau amor - conjunto fogo de chao
EXTD=
EXTT0=
EXTT1=
EXTT2=
EXTT3=
EXTT4=
EXTT5=
EXTT6=
EXTT7=
EXTT8=
EXTT9=
EXTT10=
EXTT11=
EXTT12=
EXTT13=
PLAYORDER=
